<?xml version="1.0" encoding="UTF-8"?>
<svg width="1056" height="1632" version="1.1" viewBox="0 0 1056 1632" xml:space="preserve" xmlns="http://www.w3.org/2000/svg" xmlns:cc="http://creativecommons.org/ns#" xmlns:dc="http://purl.org/dc/elements/1.1/" xmlns:rdf="http://www.w3.org/1999/02/22-rdf-syntax-ns#"><metadata><rdf:RDF><cc:Work rdf:about=""><dc:format>image/svg+xml</dc:format><dc:type rdf:resource="http://purl.org/dc/dcmitype/StillImage"/><dc:title/></cc:Work></rdf:RDF></metadata><defs><clipPath id="clipPath452"><path d="m0 3e3v9240h7620v-9240z"/></clipPath><clipPath id="clipPath462"><path d="m1100 11250h-600l5500-8250h1620v5400z"/></clipPath><clipPath id="clipPath472"><path d="m0 3e3v9240h7620v-9240z"/></clipPath></defs><g transform="matrix(1.3333 0 0 -1.3333 0 1632)"><g transform="scale(.1)"><path d="m0 0h7920v12240h-7920z" fill="#e9e4dc"/><g transform="scale(10)"><text transform="matrix(.36842 0 0 -1 195.84 189.72)" fill="#202255" font-family="NewCenturySchlbk" font-size="152px" font-weight="bold"><tspan x="0 108.224 230.43201 352.64001 477.73599 599.94397 755.896 878.104 994.68799 1102.912 1203.84 1320.424 1437.0081" y="0">SPACEWAYS LTD</tspan></text></g><path d="m300 3e3h7320v8250h-7320z" fill="#dd4e1e"/><path d="m1100 11250h-600l5500-8250h1620v5400" fill="#f08b53"/><g transform="scale(10)"><text transform="matrix(.36842 0 0 -1 22 1059)" fill="#202255" font-family="'Times New Roman'" font-size="190px" font-weight="bold"><tspan x="0 176.32001 331.54999 433.95999 599.64001 775.96002 952.28003" y="0">KLINGON</tspan></text></g><g transform="scale(10)"><text transform="matrix(.65 0 0 -1 0 10)" fill="#fffffb" font-family="Hershey-Plain-Duplex" font-size="170px" font-weight="bold"><tspan x="0 136.25999 253.64999 323.78 450.51999 586.78003 723.03998 849.78003 948.29999 1056.17 1182.91 1309.65 1427.04 1601.04 1727.78 1854.52" y="0">KLINGONSPACEWAYS</tspan></text></g><g transform="scale(10)"><text transform="matrix(1 0 0 -1 195.84 148.1)" fill="#202255" font-family="'Bookman Uralic'" font-size="15px" font-weight="300"><tspan x="0 18.1 27.200001 45 61.900002 79.699997 95.400002 106 116.9 129.60001 140.2 158 175.8 191.8 206.89999 217.5 228.39999 241.10001 251.7 268.29999 284.29999 300.29999 315.39999 333.20001 351 367.60001 383.60001 399.29999 409.89999 420.79999 433.5 444.10001 459.20001 474.60001 483.70001 501.5 519.29999 535.90002 553.70001" y="0">Q’ONOS ´• OGAT ´• RAATOORAS ´• TY’GOKOR</tspan></text></g><g transform="scale(10)"><text transform="matrix(.73077 0 0 -1 195.84 85.68)" fill="#dd4e1e" font-family="'Bookman Uralic'" font-size="45.5px"><tspan x="0 39.259998 82.160004 124.15 163.41 201.75999 245.57001 289.51001 332.41 376.35001 415.60999 454.87 493.22 532.47998 554.45001 590.07001 629.33002 669.5 712.40002 751.65997" y="0">BORETH &amp; BETA LANKAL</tspan></text></g><g transform="scale(10)"><text transform="matrix(1 0 0 -1 195.84 42.84)" fill="#202255" font-family="'Bookman Uralic'" font-size="20px" font-style="italic"><tspan x="0 18.799999 37.200001 54.400002 72.800003 91.599998 102.4 119.2 137.60001 156 173.2 191.60001 202.39999 226.39999 238 256 276 295.20001 314 332 342.79999 360 379.20001 398 416.79999 427.60001 446 464.39999 482.39999 492.79999 509.60001 528 546 566" y="0">NEVER LEAVE WITHOUT YOUR BAT’LETH!</tspan></text></g><g transform="scale(10)"><text transform="matrix(.65 0 0 -1 0 10)" fill="#fffffb" fill-opacity=".5" font-family="Hershey-Plain-Duplex" font-size="170px" font-weight="bold"><tspan x="0 136.25999 253.64999 323.78 450.51999 586.78003 723.03998 849.78003 948.29999 1056.17 1182.91 1309.65 1427.04 1601.04 1727.78 1854.52" y="0">KLINGONSPACEWAYS</tspan></text></g><g clip-path="url(#clipPath452)"><path d="m6314.8 5353.9 313.96 313.95 509.12-237.58 16.97-16.97 67.88 67.88-16.97 16.97-93.34 212.13 42.43 59.4 471.78 750.1 33.94-33.94 169.7 169.7-33.94 33.94-16.97 560.03-50.91 50.91-33.94 2104.4-84.85 84.86 67.88 67.88v16.97l33.94 33.94-67.88 67.88-35.64-11.88-5.09 28.85-254.56 254.56-271.53 441.23-59.39 76.4-76.37 59.4-97.58 72.1-59.4 42.4-67.88 34-30.55-6.8-186.68 186.7v23.7l-84.85 84.9-49.21-49.3-325.84 325.9-3.39 27.1-59.4 59.4-22.06-22-144.25 144.2 5.09 28.9-152.73 152.7-103.52 13.6-28.86-28.9 13.58-103.5 152.74-152.7 28.85 5.1 378.44-378.5-16.97-16.9 78.06-78.1 16.98 17 186.67-186.7-16.97-23.8 164.62-242.7 101.82-33.9-15.28-49.2 1.7-66.2 30.55-71.3 144.25-144.2-96.74-174.82-67.87-67.88-797.62-1748-203.65-203.64-16.97 16.96-16.97-16.96-16.97 16.96-33.94-33.94-84.85 50.92-76.37 25.45-110.31 25.46-118.8 16.97h-135.76l-161.22-25.46-152.73-50.91-212.14 93.34-106.91 39.03-112.01 33.94-95.03 16.97-42.43-25.45h-33.94l-67.88 67.88 5.09 35.64-67.88 67.88-93.34-8.48-266.44 208.73-33.94-33.94-254.56 254.56-50.91-16.97-33.94 33.94-25.46 127.28-42.42 110.31-50.91 84.85-56.01 79.76-59.39 76.37-66.19 69.58-16.97 16.97 50.91 50.91v33.94l-25.46 25.46 50.92 50.91-169.71 169.71 33.94 33.94-229.1 178.19-252.86 154.43-184.98 86.58-151.04 52.6-113.7 28.8-91.64 17-112.01-3.4-67.88-17-33.94-16.9-34.96-35-16.97-33.9-16.97-67.92-3.4-112.01 16.98-91.64 28.84-113.7 52.61-151.03 86.55-184.99 154.44-252.86 178.18-229.1 33.95 33.94 169.7-169.71 50.91 50.92 25.46-25.46h33.94l50.91 50.92 16.97-16.98 69.58-66.18 76.37-59.4 79.76-56 84.86-50.91 110.31-42.43 127.27-25.46 33.94-33.94-16.96-50.91 254.55-254.56-33.94-33.94 208.74-266.44-8.49-93.33 67.89-67.89 35.63 5.1 67.88-67.89v-33.94l-25.45-42.42 16.97-95.04 33.94-112.01 39.03-106.91 93.34-212.13-50.91-152.74-25.45-161.22v-135.76l16.96-118.8 25.46-110.3 25.46-76.37 50.91-84.86-33.94-33.94 16.97-16.97-16.97-16.97 16.97-16.97-203.65-203.64-1748-797.62-67.88-67.88-174.8-96.74-144.25 144.25-71.27 30.55-66.19 1.7-49.21-15.27-33.94 101.82-242.68 164.61-23.762-16.97-186.68 186.68 16.972 16.97-78.066 78.07-16.969-16.98-378.44 378.45 5.09 28.85-152.74 152.73-103.52 13.58-28.852-28.85 13.578-103.52 152.73-152.74 28.851 5.09 144.25-144.25-22.062-22.06 59.398-59.39 27.152-3.4 325.83-325.84-49.214-49.21 84.855-84.85h23.758l186.68-186.68-6.791-30.54 33.941-67.89 42.43-59.4 72.12-97.57 59.4-76.37 76.37-59.4 441.23-271.53 254.56-254.56 28.85-5.09-11.88-35.64 67.88-67.88 33.94 33.94h16.98l67.88 67.89 84.85-84.86 2104.4-33.94 50.91-50.91 560.03-16.97 33.94-33.94 169.71 169.71-33.94 33.93 750.09 471.79 59.4 42.42 212.13-93.34 16.97-16.96 67.89 67.88-16.98 16.97-237.58 509.11 313.95 313.96" fill="#202255"/></g><g clip-path="url(#clipPath462)"><path d="m6314.8 5353.9 313.96 313.95 509.12-237.58 16.97-16.97 67.88 67.88-16.97 16.97-93.34 212.13 42.43 59.4 471.78 750.1 33.94-33.94 169.7 169.7-33.94 33.94-16.97 560.03-50.91 50.91-33.94 2104.4-84.85 84.86 67.88 67.88v16.97l33.94 33.94-67.88 67.88-35.64-11.88-5.09 28.85-254.56 254.56-271.53 441.23-59.39 76.4-76.37 59.4-97.58 72.1-59.4 42.4-67.88 34-30.55-6.8-186.68 186.7v23.7l-84.85 84.9-49.21-49.3-325.84 325.9-3.39 27.1-59.4 59.4-22.06-22-144.25 144.2 5.09 28.9-152.73 152.7-103.52 13.6-28.86-28.9 13.58-103.5 152.74-152.7 28.85 5.1 378.44-378.5-16.97-16.9 78.06-78.1 16.98 17 186.67-186.7-16.97-23.8 164.62-242.7 101.82-33.9-15.28-49.2 1.7-66.2 30.55-71.3 144.25-144.2-96.74-174.82-67.87-67.88-797.62-1748-203.65-203.64-16.97 16.96-16.97-16.96-16.97 16.96-33.94-33.94-84.85 50.92-76.37 25.45-110.31 25.46-118.8 16.97h-135.76l-161.22-25.46-152.73-50.91-212.14 93.34-106.91 39.03-112.01 33.94-95.03 16.97-42.43-25.45h-33.94l-67.88 67.88 5.09 35.64-67.88 67.88-93.34-8.48-266.44 208.73-33.94-33.94-254.56 254.56-50.91-16.97-33.94 33.94-25.46 127.28-42.42 110.31-50.91 84.85-56.01 79.76-59.39 76.37-66.19 69.58-16.97 16.97 50.91 50.91v33.94l-25.46 25.46 50.92 50.91-169.71 169.71 33.94 33.94-229.1 178.19-252.86 154.43-184.98 86.58-151.04 52.6-113.7 28.8-91.64 17-112.01-3.4-67.88-17-33.94-16.9-34.96-35-16.97-33.9-16.97-67.92-3.4-112.01 16.98-91.64 28.84-113.7 52.61-151.03 86.55-184.99 154.44-252.86 178.18-229.1 33.95 33.94 169.7-169.71 50.91 50.92 25.46-25.46h33.94l50.91 50.92 16.97-16.98 69.58-66.18 76.37-59.4 79.76-56 84.86-50.91 110.31-42.43 127.27-25.46 33.94-33.94-16.96-50.91 254.55-254.56-33.94-33.94 208.74-266.44-8.49-93.33 67.89-67.89 35.63 5.1 67.88-67.89v-33.94l-25.45-42.42 16.97-95.04 33.94-112.01 39.03-106.91 93.34-212.13-50.91-152.74-25.45-161.22v-135.76l16.96-118.8 25.46-110.3 25.46-76.37 50.91-84.86-33.94-33.94 16.97-16.97-16.97-16.97 16.97-16.97-203.65-203.64-1748-797.62-67.88-67.88-174.8-96.74-144.25 144.25-71.27 30.55-66.19 1.7-49.21-15.27-33.94 101.82-242.68 164.61-23.762-16.97-186.68 186.68 16.972 16.97-78.066 78.07-16.969-16.98-378.44 378.45 5.09 28.85-152.74 152.73-103.52 13.58-28.852-28.85 13.578-103.52 152.73-152.74 28.851 5.09 144.25-144.25-22.062-22.06 59.398-59.39 27.152-3.4 325.83-325.84-49.214-49.21 84.855-84.85h23.758l186.68-186.68-6.791-30.54 33.941-67.89 42.43-59.4 72.12-97.57 59.4-76.37 76.37-59.4 441.23-271.53 254.56-254.56 28.85-5.09-11.88-35.64 67.88-67.88 33.94 33.94h16.98l67.88 67.89 84.85-84.86 2104.4-33.94 50.91-50.91 560.03-16.97 33.94-33.94 169.71 169.71-33.94 33.93 750.09 471.79 59.4 42.42 212.13-93.34 16.97-16.96 67.89 67.88-16.98 16.97-237.58 509.11 313.95 313.96" fill="#fff"/></g><g clip-path="url(#clipPath472)"><path d="m6314.8 5303 313.96 313.95 509.12-237.59 16.97-16.96 67.88 67.88-16.97 16.97-93.34 212.13 42.43 59.4 471.78 750.1 33.94-33.95 169.7 169.71-33.94 33.94-16.97 560.03-50.91 50.91-33.94 2104.4-84.85 84.85 67.88 67.89v16.97l33.94 33.94-67.88 67.88-35.64-11.88-5.09 28.85-254.56 254.56-271.53 441.24-59.39 76.4-76.37 59.4-97.58 72.1-59.4 42.4-67.88 34-30.55-6.8-186.68 186.6v23.8l-84.85 84.8-49.21-49.2-325.84 325.9-3.39 27.1-59.4 59.4-22.06-22-144.25 144.2 5.09 28.9-152.73 152.7-103.52 13.6-28.86-28.9 13.58-103.5 152.74-152.7 28.85 5.1 378.44-378.5-16.97-17 78.06-78 16.98 16.9 186.67-186.6-16.97-23.8 164.62-242.7 101.82-33.9-15.28-49.2 1.7-66.2 30.55-71.3 144.25-144.2-96.74-174.83-67.87-67.88-797.62-1748-203.65-203.65-16.97 16.97-16.97-16.97-16.97 16.97-33.94-33.94-84.85 50.91-76.37 25.46-110.31 25.46-118.8 16.97h-135.76l-161.22-25.46-152.73-50.91-212.14 93.34-106.91 39.03-112.01 33.94-95.03 16.97-42.43-25.45h-33.94l-67.88 67.88 5.09 35.64-67.88 67.88-93.34-8.49-266.44 208.74-33.94-33.94-254.56 254.56-50.91-16.97-33.94 33.94-25.46 127.28-42.42 110.31-50.91 84.85-56.01 79.76-59.39 76.37-66.19 69.58-16.97 16.97 50.91 50.91v33.94l-25.46 25.46 50.92 50.91-169.71 169.7 33.94 33.94-229.1 178.2-252.86 154.43-184.98 86.55-151.04 52.64-113.7 28.8-91.64 17-112.01-3.4-67.88-17-33.94-16.9-34.96-35-16.97-33.95-16.97-67.88-3.4-112.01 16.98-91.64 28.84-113.7 52.61-151.04 86.55-184.98 154.44-252.86 178.18-229.1 33.95 33.94 169.7-169.71 50.91 50.91 25.46-25.45h33.94l50.91 50.91 16.97-16.97 69.58-66.18 76.37-59.4 79.76-56 84.86-50.92 110.31-42.42 127.27-25.46 33.94-33.94-16.96-50.91 254.55-254.56-33.94-33.94 208.74-266.44-8.49-93.34 67.89-67.88 35.63 5.09 67.88-67.88v-33.94l-25.45-42.43 16.97-95.03 33.94-112.01 39.03-106.91 93.34-212.13-50.91-152.74-25.45-161.22v-135.76l16.96-118.8 25.46-110.31 25.46-76.37 50.91-84.85-33.94-33.94 16.97-16.97-16.97-16.97 16.97-16.97-203.65-203.65-1748-797.61-67.88-67.89-174.8-96.73-144.25 144.25-71.27 30.55-66.19 1.69-49.21-15.27-33.94 101.83-242.68 164.61-23.762-16.97-186.68 186.68 16.972 16.97-78.066 78.06-16.969-16.97-378.44 378.44 5.09 28.86-152.74 152.73-103.52 13.58-28.852-28.85 13.578-103.52 152.73-152.74 28.851 5.09 144.25-144.25-22.062-22.06 59.398-59.39 27.152-3.4 325.83-325.84-49.214-49.21 84.855-84.85h23.758l186.68-186.68-6.791-30.54 33.941-67.89 42.43-59.4 72.12-97.58 59.4-76.36 76.37-59.4 441.23-271.53 254.56-254.56 28.85-5.09-11.88-35.64 67.88-67.88 33.94 33.94h16.98l67.88 67.88 84.85-84.85 2104.4-33.94 50.91-50.91 560.03-16.97 33.94-33.95 169.71 169.71-33.94 33.94 750.09 471.78 59.4 42.43 212.13-93.34 16.97-16.97 67.89 67.88-16.98 16.98-237.58 509.11 313.95 313.96" fill="#202255" fill-opacity=".7"/></g><g transform="scale(10)"><text transform="matrix(0,1,1,0,42,303)" fill="#ffffff" font-family="'Courier New'" font-size="12px"><tspan x="0 7.1999998 14.4 21.6 28.799999 36 43.200001 50.400002 57.599998 64.800003 72 79.199997 86.400002 93.599998 100.8 108 115.2 122.4 129.60001 136.8 144 151.2 158.39999 165.60001 172.8 180 187.2 194.39999 201.60001 208.8 216 223.2 230.39999" y="0">© 2022 Glen Newton − CC BY−NC 4.0</tspan></text></g></g></g></svg>
